<?xml version="1.0" ?><svg viewBox="0 0 512 512" xmlns="http://www.w3.org/2000/svg"><title/><g id="Labrador_retriever"><path d="M407.3049,102.2788,360.2565,77.446A25.0219,25.0219,0,0,0,332.61,80.0491a25.6552,25.6552,0,0,0-5.78,6.5605,70.9836,70.9836,0,0,0-29.4453-6.4277h-82.77A70.9991,70.9991,0,0,0,185.17,86.6088a25.6571,25.6571,0,0,0-5.7791-6.56A25.0271,25.0271,0,0,0,151.744,77.446l-47.0484,24.8328a48.7755,48.7755,0,0,0-23.4547,59.4031l24.8172,71.7234a25.4229,25.4229,0,0,0,37.6078,13.1182V369.9163c0,37.1359,42.428,56.82,73.18,63.4988A187.5481,187.5481,0,0,0,286.8559,435c19.7414-3.2728,39.6266-9.8546,55.9366-21.7239,14.0337-10.2126,25.5421-25.33,25.5421-43.36V246.5239a25.4234,25.4234,0,0,0,37.6078-13.1186l24.8157-71.7234A48.7728,48.7728,0,0,0,407.3049,102.2788ZM130.4659,237.6616a12.2464,12.2464,0,0,1-12.311-8.4406L93.3378,157.4975a36.0456,36.0456,0,0,1,17.3328-43.9L157.719,88.7647a12.46,12.46,0,0,1,13.6891,1.2891,12.2415,12.2415,0,0,1,4.2968,13.0625L142.144,228.3647A12.2116,12.2116,0,0,1,130.4659,237.6616ZM256,424.6835c-53.9532,0-99.5344-25.08-99.5344-54.7672V224.3649l31.6015-117.9361a25.8806,25.8806,0,0,0,.8793-7.4784,58.1651,58.1651,0,0,1,25.6676-5.9685h82.77a58.1734,58.1734,0,0,1,25.6692,5.968,25.8878,25.8878,0,0,0,.8793,7.4789L355.5346,224.37V369.9163C355.5346,399.6038,309.9534,424.6835,256,424.6835Zm162.6609-267.186-24.8156,71.7219a12.5541,12.5541,0,0,1-23.9907-.8547L336.2956,103.1163a12.2415,12.2415,0,0,1,4.2968-13.0625,12.4618,12.4618,0,0,1,13.6891-1.2891L401.33,113.5975A36.0432,36.0432,0,0,1,418.6612,157.4975Z"/><path d="M306.7565,245.7053c-7.2,0-5.8141,7.73-7.3692,12.3927a18.9767,18.9767,0,0,1-36.5513-1.9806,11.0634,11.0634,0,0,0,1.8268-1.8355l14.4937-18.53a10.9993,10.9993,0,0,0-8.6656-17.775H241.5081a10.9982,10.9982,0,0,0-8.6641,17.775l14.4922,18.53a11.07,11.07,0,0,0,1.8281,1.8359c-3.6383,16.8255-26.9552,20.14-35.2027,5.0731a18.9563,18.9563,0,0,1-1.9062-5.1613c-.4183-1.9684-.12-4.1228-.7788-6.02a6.4594,6.4594,0,0,0-9.2642-3.43c-6.7751,3.9644-1.7917,16.4787,1.1537,21.5168a32.08,32.08,0,0,0,21.0545,15.1412v33.365a31.7789,31.7789,0,0,0,63.5578,0v-33.365a32.0721,32.0721,0,0,0,21.0545-15.1412C311.8736,262.8948,317.8956,245.7053,306.7565,245.7053ZM256,335.58a19.0005,19.0005,0,0,1-18.98-18.9781V283.2374A31.8042,31.8042,0,0,0,256,271.1512a31.802,31.802,0,0,0,18.9781,12.086v33.365A19,19,0,0,1,256,335.58Z"/><path d="M219.8747,182.58v-10.139a14.4,14.4,0,1,0-28.8,0V182.58a14.4,14.4,0,0,0,28.8,0Z"/><path d="M306.5247,158.0413a14.4169,14.4169,0,0,0-14.4,14.4V182.58a14.4,14.4,0,1,0,28.8,0v-10.139A14.417,14.417,0,0,0,306.5247,158.0413Z"/></g></svg>