<?xml version="1.0" ?><svg viewBox="0 0 512 512" xmlns="http://www.w3.org/2000/svg"><title/><g id="Chow_chow"><path d="M329.9737,252.5011l-15.4891,15.4875a11.4846,11.4846,0,0,1-16.2266.0016l-6.0863-6.0867-.0053-.0051-29.749-29.75v-7.7937a12.144,12.144,0,0,0,3.2125-2.7922l18.2906-23.3844a12.2041,12.2041,0,0,0-9.6156-19.7219H237.73a12.203,12.203,0,0,0-9.614,19.7219l18.289,23.3844a12.144,12.144,0,0,0,3.2125,2.7922v7.7937l-29.749,29.75-.0053.0051-6.0863,6.0867a11.49,11.49,0,0,1-16.2266,0l-15.489-15.4891a6.3993,6.3993,0,0,0-9.05,9.05L188.5,277.0418a24.4883,24.4883,0,0,0,30.06,3.3769,37.9781,37.9781,0,0,0,74.9146.0008,24.2667,24.2667,0,0,0,30.06-3.3793l15.4891-15.4891a6.3993,6.3993,0,0,0-9.05-9.05Zm-73.9563,46.8282a25.2558,25.2558,0,0,1-25.2265-25.2266v-5.0266L256.0174,243.85l25.2266,25.2265v5.0266A25.2559,25.2559,0,0,1,256.0174,299.3293Z"/><path d="M194.1078,179.6629A12.8576,12.8576,0,0,0,206.95,166.8207v-9.0426s-11.7593,1.5433-25.2582,12.1578A12.8344,12.8344,0,0,0,194.1078,179.6629Z"/><path d="M317.927,179.6629a12.8344,12.8344,0,0,0,12.4158-9.727c-13.4988-10.6145-25.2584-12.1578-25.2584-12.1578v9.0426A12.8578,12.8578,0,0,0,317.927,179.6629Z"/><path d="M442.094,217.4933c-10.3078-33.9125-26.75-74.0578-31.9094-86.4125a53.4774,53.4774,0,0,0-76.2381-74.5871,94.373,94.373,0,0,0-45.4744-11.5769H223.5627a94.3715,94.3715,0,0,0-45.4742,11.5765,53.1846,53.1846,0,0,0-41.71-12.9453A53.4859,53.4859,0,0,0,101.85,131.0808c-5.1593,12.3547-21.6015,52.5-31.9093,86.4125-8.7,28.6278.8413,59.1745,10.8087,86.2849a312.2356,312.2356,0,0,0,46.1892,83.6164,305.3628,305.3628,0,0,0,46.3927,47.8534,6.3977,6.3977,0,0,0,8.0328.1078l18.8437-14.78c8.9188,9.8453,30.9907,33.1375,52.2813,47.2047.0777.0516.1664.0672.2455.1145a6.2917,6.2917,0,0,0,1.09.5074c.1748.0641.3409.1484.5186.1969a6.4287,6.4287,0,0,0,1.6016.2312h.1457a6.4266,6.4266,0,0,0,1.6015-.2312c.1776-.0481.3436-.1324.5182-.1965a6.3136,6.3136,0,0,0,1.0908-.5082c.0789-.0477.1672-.0629.2447-.1141,21.2907-14.0672,43.3625-37.3594,52.2813-47.2047l18.8437,14.78a6.3979,6.3979,0,0,0,8.0329-.1078,306.2308,306.2308,0,0,0,71.4186-85.5659,316.159,316.159,0,0,0,30.66-76.4006C445.5386,254.7068,447.7905,236.2382,442.094,217.4933ZM431.4752,256.69C423.794,294.2183,401.01,364.973,334.4737,422.0714L314.9893,406.79a6.4052,6.4052,0,0,0-8.8.8594c-.2654.3086-25.7061,29.7047-50.1719,47.025-24.4414-17.3055-49.9066-46.7164-50.1734-47.025a6.3994,6.3994,0,0,0-8.7985-.8594l-19.4843,15.2812C111.0252,364.973,88.2409,294.2183,80.56,256.69a72.4287,72.4287,0,0,1,1.6281-35.475c12.0828-39.7563,32.825-88.4219,33.0328-88.9078a6.3977,6.3977,0,0,0-1.3375-7.0188A40.6516,40.6516,0,0,1,166.718,63.82a96.2768,96.2768,0,0,0-10.2521,8.889,6.3993,6.3993,0,0,0,9.05,9.05,81.5624,81.5624,0,0,1,58.0468-24.0421h64.9094A81.5626,81.5626,0,0,1,346.519,81.7589a6.4728,6.4728,0,0,0,9.05,0,6.3977,6.3977,0,0,0,0-9.05,96.3016,96.3016,0,0,0-10.2526-8.889,40.6561,40.6561,0,0,1,52.8354,61.4687,6.3981,6.3981,0,0,0-1.3375,7.0188,904.2615,904.2615,0,0,1,31.8369,85.033C432.6925,230.2465,434.2106,243.322,431.4752,256.69Z"/><path d="M228.7393,170.3558c8.0891,5.9505,14.3277-9.4161,16.6206-14.77a67.1288,67.1288,0,0,0,5.3778-26.38V107.8933c0-8.24-12.8-8.2564-12.8,0v21.3125a54.0056,54.0056,0,0,1-10.564,32.2031A6.399,6.399,0,0,0,228.7393,170.3558Z"/><path d="M279.51,171.6a6.4,6.4,0,0,0,5.1516-10.1907,54.005,54.005,0,0,1-10.5641-32.2031V107.8933c0-8.24-12.8-8.2564-12.8,0v21.3125a66.6781,66.6781,0,0,0,10.0391,35.3321C273.2662,167.6479,275.3322,171.6,279.51,171.6Z"/><path d="M354.6393,206.2324a6.4,6.4,0,1,0-7.1875,10.5906,47.6446,47.6446,0,0,1,20.0547,30.4017c.71,3.679-.11,8.5779,1.554,11.898a6.44,6.44,0,0,0,9.282,2.4357c3.6738-2.4788,2.9194-7.2573,2.5538-11.0747a60.4152,60.4152,0,0,0-26.257-44.2513Z"/><path d="M157.3955,206.2324a60.8551,60.8551,0,0,0-25.8439,40.9292c-.5309,3.4919-1.6583,8.6524-.0005,11.9611a6.4549,6.4549,0,0,0,9.6224,2.2058c3.3274-2.5706,2.3894-7.132,2.8363-10.8157a47.6234,47.6234,0,0,1,20.5732-33.69,6.4,6.4,0,1,0-7.1875-10.5906Z"/></g></svg>